<svg width="33" height="32" viewBox="0 0 33 32" fill="none" xmlns="http://www.w3.org/2000/svg">
<rect x="0.5" width="32" height="32" rx="8" fill="url(#paint0_linear_4919_432)"/>
<path fill-rule="evenodd" clip-rule="evenodd" d="M10.9 12.8226C10.4293 12.8514 10.0954 12.916 9.81042 13.0612C9.35883 13.2913 8.99168 13.6584 8.76158 14.11C8.5 14.6234 8.5 15.2955 8.5 16.6396V20.1596C8.5 21.5037 8.5 22.1758 8.76158 22.6892C8.99168 23.1408 9.35883 23.5079 9.81042 23.738C10.3238 23.9996 10.9959 23.9996 12.34 23.9996H20.66C22.0041 23.9996 22.6762 23.9996 23.1896 23.738C23.6412 23.5079 24.0083 23.1408 24.2384 22.6892C24.5 22.1758 24.5 21.5037 24.5 20.1596V16.6396C24.5 15.2955 24.5 14.6234 24.2384 14.11C24.0083 13.6584 23.6412 13.2913 23.1896 13.0612C22.9046 12.916 22.5707 12.8514 22.1 12.8226V11.1996C22.1 8.10681 19.5928 5.59961 16.5 5.59961C13.4072 5.59961 10.9 8.10681 10.9 11.1996L10.9 12.8226ZM19.7 12.7996H13.3L13.3 11.1996C13.3 9.4323 14.7327 7.99961 16.5 7.99961C18.2673 7.99961 19.7 9.4323 19.7 11.1996V12.7996Z" fill="white"/>
<defs>
<linearGradient id="paint0_linear_4919_432" x1="-15.5" y1="16" x2="16.5" y2="48" gradientUnits="userSpaceOnUse">
<stop stop-color="#626466"/>
<stop offset="1" stop-color="#444647"/>
</linearGradient>
</defs>
</svg>
